<?xml version="1.0" encoding="utf-8"?>
<!-- Generator: Adobe Illustrator 22.0.1, SVG Export Plug-In . SVG Version: 6.00 Build 0)  -->
<svg version="1.1" id="Layer_1" xmlns="http://www.w3.org/2000/svg" xmlns:xlink="http://www.w3.org/1999/xlink" x="0px" y="0px"
	 width="37px" height="38px" viewBox="0 0 337.6 335.4" style="enable-background:new 0 0 337.6 335.4;" xml:space="preserve">
<style type="text/css">
	.st0{fill:#FFFFFF;stroke:#FFFFFF;stroke-width:12;stroke-miterlimit:10;}
</style>
<g>
	<path class="st0" d="M175.7,12.5c-4.1-4.1-10.8-4.1-14.9,0l0,0L90.9,82.4c-4.1,4.1-4.1,10.8,0,14.9l0,0l43.2,43.2
		c2.1,2.1,5.4,2.1,7.4,0v0c2.1-2.1,2.1-5.4,0-7.4L98.4,89.8L168.2,20L324,175.7l0,0c4.1-4.1,4.1-10.8,0-14.9L175.7,12.5z"/>
	<path class="st0" d="M164.8,164L164.8,164c-2.1,2.1-2.1,5.4,0,7.4l0,0c2.1,2.1,5.4,2.1,7.4,0v0c2.1-2.1,2.1-5.4,0-7.4l0,0
		C170.2,161.9,166.9,161.9,164.8,164z"/>
	<path class="st0" d="M168.5,97.6l116.8,116.8l0,0c4.1-4.1,4.1-10.8,0-14.9L168.5,82.7v0C164.4,86.8,164.4,93.4,168.5,97.6z"/>
	<path class="st0" d="M196,194.9L196,194.9c-2.1,2.1-2.1,5.4,0,7.4l43.2,43.2l-69.9,69.9L13.7,159.7h0c-4.1,4.1-4.1,10.8,0,14.9
		l148.3,148.3c4.1,4.1,10.8,4.1,14.9,0h0l69.9-69.9c4.1-4.1,4.1-10.8,0-14.9h0l-43.2-43.2C201.4,192.8,198.1,192.8,196,194.9z"/>
	<path class="st0" d="M169.1,237.8L52.3,121l0,0c-4.1,4.1-4.1,10.8,0,14.9l116.8,116.8l0,0C173.2,248.6,173.2,242,169.1,237.8z"/>
</g>
</svg>
