<?xml version="1.0" encoding="utf-8"?>
<!-- Generator: Adobe Illustrator 22.0.1, SVG Export Plug-In . SVG Version: 6.00 Build 0)  -->
<svg version="1.1" id="Layer_1" xmlns="http://www.w3.org/2000/svg" xmlns:xlink="http://www.w3.org/1999/xlink" x="0px" y="0px"
	 width="37px" height="38px" viewBox="0 0 300 300" style="enable-background:new 0 0 300 300;" xml:space="preserve">
<style type="text/css">
	.st0{fill:#FFFFFF;stroke:#FFFFFF;stroke-width:12;stroke-miterlimit:10;}
</style>
<g>
	<path class="st0" d="M156.2,10.2c-3.7-3.7-9.7-3.7-13.4,0l0,0L79.9,73.1c-3.7,3.7-3.7,9.7,0,13.4l0,0l38.9,38.9
		c1.9,1.9,4.9,1.9,6.7,0l0,0c1.9-1.9,1.9-4.9,0-6.7L86.6,79.9l62.9-62.9l140.3,140.3v0c3.7-3.7,3.7-9.7,0-13.4L156.2,10.2z"/>
	<path class="st0" d="M146.4,146.6L146.4,146.6c-1.9,1.9-1.9,4.9,0,6.7h0c1.9,1.9,4.9,1.9,6.7,0h0c1.9-1.9,1.9-4.9,0-6.7h0
		C151.2,144.8,148.2,144.8,146.4,146.6z"/>
	<path class="st0" d="M149.7,86.8L255,192v0c3.7-3.7,3.7-9.7,0-13.4L149.7,73.4l0,0C146,77.1,146,83.1,149.7,86.8z"/>
	<path class="st0" d="M174.5,174.5L174.5,174.5c-1.9,1.9-1.9,4.9,0,6.7l38.9,38.9l-62.9,62.9L10.2,142.8l0,0
		c-3.7,3.7-3.7,9.7,0,13.4l133.6,133.6c3.7,3.7,9.7,3.7,13.4,0h0l62.9-62.9c3.7-3.7,3.7-9.7,0-13.4l0,0l-38.9-38.9
		C179.4,172.6,176.4,172.6,174.5,174.5z"/>
	<path class="st0" d="M150.3,213.2L45,108l0,0c-3.7,3.7-3.7,9.7,0,13.4l105.2,105.2l0,0C154,222.9,154,216.9,150.3,213.2z"/>
</g>
</svg>
